<svg xmlns="http://www.w3.org/2000/svg" id="Ebene_1" viewBox="0 0 92 25">
  <defs>
    <style>
      .white-fill { fill: #ffffff; }
    </style>
  </defs>
  <g>
    <path class="white-fill" d="M44.20611,10.68278v1.85h-6.18v4.3h-2.21v-5.43c0-1.3.13-2.27.39-2.92s.65-1.12,1.18-1.4c.53-.29,1-.47,1.41-.54s1.02-.11,1.83-.11h3.58v1.85h-3.3c-1.09,0-1.84.13-2.26.4-.42.26-.62.74-.62,1.44v.56s6.18,0,6.18,0Z"></path>
    <path class="white-fill" d="M45.79611,8.45278v-2.02h2.09v2.02h-2.09ZM45.79611,9.23278h2.09v7.6h-2.09v-7.6Z"></path>
    <path class="white-fill" d="M52.02611,9.25278h1.85c1.2,0,2.14.32,2.8.95s1,1.53,1,2.69c0,1.57-.36,2.57-1.09,3.02s-1.28.71-1.67.79c-.38.08-.91.12-1.59.12h-3.39V6.43278h2.09v2.82ZM52.02611,10.87278v4.34h1.54c.61,0,1.09-.19,1.45-.58.35-.38.53-.91.53-1.59,0-1.45-.66-2.18-1.98-2.18h-1.54v.01Z"></path>
    <path class="white-fill" d="M58.26611,16.83278l4.3-10.4h2.54l4.3,10.4h-2.58l-1-2.43h-3.95l-1,2.43h-2.61ZM63.84612,8.92278l-1.48,3.63h2.96l-1.48-3.63Z"></path>
    <path class="white-fill" d="M72.57612,16.83278h-2.09V6.43278h2.09v10.4Z"></path>
    <path class="white-fill" d="M81.89612,9.25278v7.51c0,.84-.16,1.45-.47,1.83s-.64.63-.97.75c-.34.11-.83.17-1.47.17h-4.16v-1.62h3.88c.44,0,.73-.06.88-.18.15-.12.23-.37.23-.74v-.14h-1.91c-.61,0-1.12-.06-1.51-.19-.39-.12-.86-.44-1.41-.95-.54-.51-.82-1.4-.82-2.68s.33-2.16.98-2.8,1.61-.97,2.86-.97h3.89v.01ZM79.81611,10.87278h-1.73c-1.19,0-1.79.73-1.79,2.18s.63,2.16,1.9,2.16h1.62v-4.34Z"></path>
    <path class="white-fill" d="M87.44611,9.12278c1.27,0,2.25.35,2.96,1.04.71.7,1.06,1.68,1.06,2.94,0,1.17-.36,2.1-1.09,2.79-.73.69-1.72,1.03-2.99,1.03s-2.19-.34-2.89-1.04c-.7-.69-1.05-1.65-1.05-2.87s.36-2.14,1.08-2.84,1.69-1.05,2.92-1.05ZM87.41611,10.74278c-1.22,0-1.84.76-1.84,2.29s.63,2.27,1.9,2.27,1.85-.76,1.85-2.27-.64-2.29-1.91-2.29Z"></path>
  </g>
  <g>
    <polygon class="white-fill" points="15.57611 10.09278 18.18611 15.15278 10.46611 15.15278 8.53611 18.89278 5.92611 23.96278 .25611 23.96278 2.86611 18.89278 4.79611 15.15278 7.40611 10.09278 9.68611 5.65278 11.48611 2.16278 12.29611 .59278 18.83611 .59278 19.64612 2.16278 21.44611 5.65278 15.36611 5.65278 14.32611 7.66278 13.07611 10.09278 15.57611 10.09278"></polygon>
    <polygon class="white-fill" points="30.88612 23.96278 8.40611 23.96278 11.01611 18.89278 22.60611 18.89278 20.67611 15.15278 18.06611 10.09278 23.73611 10.09278 26.34611 15.15278 28.27611 18.89278 30.88612 23.96278"></polygon>
  </g>
</svg>
